<svg width="12" height="14" fill="none" xmlns="http://www.w3.org/2000/svg"><path fill-rule="evenodd" clip-rule="evenodd" d="M6 14A6 6 0 106 2a6 6 0 000 12zm1.263-3c.61 0 1.139-.228 1.568-.672.446-.488-.09-.963-.464-1.233a4.848 4.848 0 01-.1-.074c-.215-.165-.479-.366-.83-.318-.242.058-.374.208-.502.354-.118.134-.233.265-.427.318-.29.056-.58-.112-.755-.28-.407-.28-.697-.616-.988-1.008-.116-.168-.29-.448-.232-.729.04-.114.16-.203.27-.284.051-.037.1-.072.137-.108l.072-.065c.107-.094.23-.202.276-.383.05-.338-.116-.593-.274-.836a6.824 6.824 0 01-.074-.116 31.636 31.636 0 01-.018-.024c-.176-.226-.459-.59-.796-.537-.22.072-.53.38-.697.56-.444.483-.58 1.401-.232 2.186.29.672.755 1.232 1.22 1.736.523.505 1.045.953 1.684 1.233.349.168.697.28 1.162.28z" fill="#999"/></svg>